<svg fill="white" id="Capa_1" enable-background="new 0 0 512 512" height="512" viewBox="0 0 512 512" width="512" xmlns="http://www.w3.org/2000/svg"><g><path d="m430.666 0h-316.81c-23.447 0-42.522 19.075-42.522 42.521v426.958c0 23.446 19.075 42.521 42.521 42.521h316.81c5.523 0 10-4.477 10-10v-492c.001-5.523-4.477-10-9.999-10zm-74.707 20v60.708l-21.311-8.752c-1.217-.5-2.508-.75-3.799-.75s-2.582.25-3.799.75l-21.311 8.752v-60.708zm64.707 472h-306.81c-12.418 0-22.521-10.103-22.521-22.521v-426.958c-.001-12.418 10.102-22.521 22.52-22.521h171.885v75.625c0 3.334 1.662 6.45 4.432 8.306 2.769 1.856 6.281 2.21 9.367.944l31.311-12.858 31.311 12.858c1.223.502 2.513.75 3.798.75 1.956 0 3.898-.573 5.569-1.694 2.77-1.856 4.432-4.972 4.432-8.306v-75.625h44.706z"/><path d="m131.915 140.617c-5.523 0-10 4.477-10 10v150.213c0 5.523 4.477 10 10 10h248.17c5.523 0 10-4.477 10-10v-150.213c0-5.523-4.477-10-10-10zm238.17 150.213h-228.17v-130.213h228.17z"/><path d="m220.019 269.578c5.161 1.966 10.938-.625 12.904-5.786l3.178-8.343h22.521l3.138 8.315c1.511 4.005 5.316 6.472 9.357 6.472 1.173 0 2.367-.208 3.529-.647 5.167-1.95 7.775-7.72 5.825-12.887l-22.404-59.365c-.034-.091-.07-.182-.107-.271-1.759-4.279-5.884-7.043-10.51-7.043h-.01c-4.631.004-8.756 2.776-10.509 7.063-.031.075-.061.15-.089.227l-22.609 59.362c-1.966 5.16.625 10.937 5.786 12.903zm31.055-34.129h-7.356l3.695-9.701z"/><path d="m292.105 268.408c1.751 1.233 3.76 1.826 5.75 1.826 3.143 0 6.236-1.478 8.184-4.242l14.534-20.631 14.509 20.625c1.947 2.768 5.043 4.247 8.188 4.247 1.988 0 3.996-.591 5.745-1.822 4.517-3.177 5.603-9.416 2.425-13.933l-18.632-26.485 15.648-22.212c3.181-4.515 2.099-10.753-2.416-13.935-4.516-3.18-10.753-2.099-13.935 2.416l-11.521 16.354-11.501-16.348c-3.179-4.517-9.415-5.603-13.933-2.425-4.517 3.178-5.603 9.416-2.425 13.933l15.623 22.209-18.661 26.489c-3.179 4.515-2.097 10.754 2.418 13.934z"/><path d="m168.738 210.022h6.559v50.21c0 5.523 4.477 10 10 10s10-4.477 10-10v-50.21h6.693c5.523 0 10-4.477 10-10s-4.477-10-10-10h-33.251c-5.523 0-10 4.477-10 10s4.476 10 9.999 10z"/><path d="m360.085 352.447h-208.17c-5.523 0-10 4.477-10 10s4.477 10 10 10h208.17c5.523 0 10-4.477 10-10s-4.477-10-10-10z"/><path d="m320.309 395.264h-128.618c-5.523 0-10 4.477-10 10s4.477 10 10 10h128.617c5.523 0 10-4.477 10-10s-4.476-10-9.999-10z"/></g></svg>