<svg fill="white" id="Capa_1" enable-background="new 0 0 512 512" height="512" viewBox="0 0 512 512" width="512" xmlns="http://www.w3.org/2000/svg"><g><path d="m416.269 0h-320.538c-16.572 0-30.055 13.483-30.055 30.056v451.889c0 16.573 13.483 30.056 30.055 30.056h320.537c16.572 0 30.055-13.483 30.055-30.056v-451.889c.001-16.573-13.482-30.056-30.054-30.056zm10.055 481.944c0 5.545-4.511 10.056-10.055 10.056h-320.538c-5.544 0-10.055-4.511-10.055-10.056v-451.888c0-5.545 4.511-10.056 10.055-10.056h320.537c5.544 0 10.055 4.511 10.055 10.056v451.888z"/><path d="m383.41 50.021h-254.82c-5.523 0-10 4.477-10 10v90.596c0 5.523 4.477 10 10 10h254.82c5.523 0 10-4.477 10-10v-90.596c0-5.522-4.477-10-10-10zm-10 90.596h-234.82v-70.596h234.82z"/><path d="m231.295 215.128h-102.705c-5.523 0-10 4.477-10 10v92.705c0 5.523 4.477 10 10 10h102.705c5.523 0 10-4.477 10-10v-92.705c0-5.523-4.477-10-10-10zm-10 92.705h-82.705v-72.705h82.705z"/><path d="m383.41 215.128h-102.705c-5.523 0-10 4.477-10 10v92.705c0 5.523 4.477 10 10 10h102.705c5.523 0 10-4.477 10-10v-92.705c0-5.523-4.477-10-10-10zm-10 92.705h-82.705v-72.705h82.705z"/><path d="m231.295 349.17h-102.705c-5.523 0-10 4.477-10 10v92.705c0 5.523 4.477 10 10 10h102.705c5.523 0 10-4.477 10-10v-92.705c0-5.523-4.477-10-10-10zm-10 92.705h-82.705v-72.705h82.705z"/><path d="m383.41 349.17h-102.705c-5.523 0-10 4.477-10 10v92.705c0 5.523 4.477 10 10 10h102.705c5.523 0 10-4.477 10-10v-92.705c0-5.523-4.477-10-10-10zm-10 92.705h-82.705v-72.705h82.705z"/><path d="m167.022 281.48h2.921v2.921c0 5.523 4.477 10 10 10s10-4.477 10-10v-2.921h2.921c5.523 0 10-4.477 10-10s-4.477-10-10-10h-2.921v-2.921c0-5.523-4.477-10-10-10s-10 4.477-10 10v2.921h-2.921c-5.523 0-10 4.477-10 10s4.477 10 10 10z"/><path d="m163.735 421.472c1.953 1.953 4.512 2.929 7.071 2.929s5.119-.976 7.071-2.929l2.065-2.065 2.065 2.065c1.953 1.953 4.512 2.929 7.071 2.929s5.119-.976 7.071-2.929c3.905-3.905 3.905-10.237 0-14.143l-2.065-2.065 2.065-2.065c3.905-3.905 3.905-10.237 0-14.143-3.905-3.905-10.237-3.905-14.143 0l-2.065 2.065-2.065-2.065c-3.905-3.905-10.237-3.905-14.143 0-3.905 3.905-3.905 10.237 0 14.143l2.065 2.065-2.065 2.065c-3.903 3.905-3.903 10.237.002 14.143z"/><path d="m319.136 281.48h25.842c5.523 0 10-4.477 10-10s-4.477-10-10-10h-25.842c-5.523 0-10 4.477-10 10s4.477 10 10 10z"/><path d="m319.136 428.936h25.842c5.523 0 10-4.477 10-10s-4.477-10-10-10h-25.842c-5.523 0-10 4.477-10 10s4.477 10 10 10z"/><path d="m319.136 401.362h25.842c5.523 0 10-4.477 10-10s-4.477-10-10-10h-25.842c-5.523 0-10 4.477-10 10s4.477 10 10 10z"/></g></svg>