<svg fill="white" id="Capa_1" enable-background="new 0 0 512 512" height="512" viewBox="0 0 512 512" width="512" xmlns="http://www.w3.org/2000/svg"><g><path d="m407.817 97.683c-3.464-4.302-9.758-4.979-14.061-1.516-4.301 3.465-4.979 9.76-1.515 14.061 6.465 8.027 15.894 12.431 25.166 14.405v.373c0 5.522 4.477 10 10 10 5.4 0 9.799-4.281 9.993-9.633 16.355-2.471 27.893-13.036 29.734-27.54 2.097-16.516-8.673-32.375-26.191-38.567-1.23-.435-2.408-.854-3.536-1.259v-26.355c2.499.99 4.255 2.369 5.186 3.696 3.173 4.521 9.409 5.614 13.93 2.441 4.521-3.172 5.614-9.408 2.442-13.93-4.219-6.013-11.753-11.066-21.558-12.89v-.969c0-5.522-4.477-10-10-10s-10 4.478-10 10v1.693c-1.103.263-2.219.563-3.348.903-11.603 3.495-20.359 14.752-21.295 27.374-.926 12.497 5.711 23.348 17.755 29.027 1.547.729 3.906 1.716 6.889 2.888v32.055c-3.831-1.336-7.276-3.383-9.591-6.257zm39.477-2.37c-.601 4.731-4.13 8.123-9.887 9.677v-25.525c7.651 3.926 10.541 10.696 9.887 15.848zm-34.585-53.865c.252-3.403 2.135-6.666 4.698-8.493v17.066c-3.387-2.088-4.966-4.965-4.698-8.573z"/><path d="m475.52 325.434h-80.483c-5.523 0-10 4.478-10 10v166.566c0 5.522 4.477 10 10 10h80.483c5.523 0 10-4.478 10-10v-166.566c0-5.523-4.477-10-10-10zm-10 166.566h-60.483v-146.566h60.483z"/><path d="m357.605 216.29h-80.483c-5.523 0-10 4.478-10 10v275.71c0 5.522 4.477 10 10 10h80.483c5.523 0 10-4.478 10-10v-275.71c0-5.522-4.477-10-10-10zm-10 275.71h-60.483v-255.71h60.483z"/><path d="m121.776 166.767h-80.483c-5.523 0-10 4.478-10 10v325.233c0 5.522 4.477 10 10 10h80.483c5.523 0 10-4.478 10-10v-325.233c0-5.523-4.477-10-10-10zm-10 325.233h-60.483v-305.233h60.483z"/><path d="m239.691 246.005h-80.483c-5.523 0-10 4.478-10 10v245.995c0 5.522 4.477 10 10 10h80.483c5.523 0 10-4.478 10-10v-245.995c0-5.523-4.478-10-10-10zm-10 245.995h-60.483v-225.995h60.483z"/><path d="m193.733 176.829 121.587-56.207 124.404 120.982-12.494-3.045c-5.367-1.305-10.775 1.983-12.083 7.349-1.308 5.365 1.982 10.775 7.348 12.083l46.739 11.39c.784.191 1.579.284 2.367.284 2.514 0 4.971-.949 6.846-2.71 2.464-2.313 3.592-5.715 3-9.042l-8.424-47.328c-.968-5.438-6.159-9.06-11.598-8.094-5.438.969-9.061 6.161-8.093 11.598l2.766 15.542-131.763-128.14c-2.967-2.888-7.408-3.646-11.168-1.908l-121.85 56.329-148.156-133.012c-4.11-3.689-10.432-3.348-14.122.761-3.689 4.109-3.349 10.433.761 14.122l153.056 137.41c2.972 2.668 7.249 3.311 10.877 1.636z"/></g></svg>