<svg fill="white" id="Capa_1" enable-background="new 0 0 512 512" height="512" viewBox="0 0 512 512" width="512" xmlns="http://www.w3.org/2000/svg"><g><path d="m431.729 65.139c-48.133-10.015-60.182-16.205-78.435-59.058-1.57-3.687-5.19-6.081-9.199-6.081h-176.19c-4.009 0-7.629 2.394-9.2 6.081-18.253 42.853-30.302 49.043-78.435 59.058-4.639.965-7.963 5.053-7.963 9.791v274.979c0 38.268 20.809 73.536 54.306 92.041l124.552 68.804c1.504.831 3.17 1.247 4.835 1.247s3.331-.416 4.835-1.247l124.552-68.804c33.497-18.504 54.306-53.772 54.306-92.041v-274.98c-.001-4.738-3.325-8.825-7.964-9.79zm-12.037 284.77c0 30.989-16.851 59.549-43.976 74.534l-119.716 66.133-119.716-66.133c-27.126-14.985-43.977-43.545-43.977-74.534v-266.893c22.642-5.001 37.907-9.937 50.418-19.012 14.184-10.289 23.236-25.091 31.725-44.004h163.1c8.489 18.913 17.541 33.715 31.725 44.003 12.511 9.075 27.776 14.011 50.418 19.012v266.894z"/><path d="m313.984 68.458c-1.854-2.785-4.978-4.458-8.323-4.458h-99.322c-3.346 0-6.47 1.673-8.323 4.458-14.624 21.961-31.214 35.542-55.476 45.41-3.769 1.533-6.232 5.195-6.232 9.263v226.778c0 14.976 8.143 28.778 21.251 36.02h.001l93.605 51.708c1.504.831 3.17 1.247 4.835 1.247s3.331-.416 4.835-1.247l93.604-51.708c13.109-7.242 21.253-21.043 21.253-36.02v-226.779c0-4.068-2.464-7.73-6.232-9.263-24.262-9.868-40.852-23.449-55.476-45.409zm41.708 281.451c0 7.698-4.186 14.792-10.923 18.513l-88.769 49.037-88.771-49.038h.001c-6.737-3.722-10.923-10.816-10.923-18.514v-220.192c23.056-10.466 40.448-24.855 55.287-45.715h88.811c14.839 20.859 32.231 35.249 55.287 45.715z"/><path d="m302.576 204.965-54.715 72.953-27.979-20.984c-4.418-3.313-10.687-2.418-14 2s-2.418 10.686 2 14l35.979 26.984c1.741 1.306 3.849 2 6 2 .471 0 .943-.033 1.414-.101 2.626-.375 4.995-1.778 6.586-3.899l60.715-80.953c3.313-4.418 2.418-10.687-2-14-4.417-3.313-10.685-2.418-14 2z"/></g></svg>